# xmcd
#
# Track frame offsets:
#	150
#	12986
#	33404
#	79421
#	99533
#	122602
#	137481
#	161253
#	192825
#	209029
#	231735
#	270483
#	294853
#	304507
#	316463
#	335700
#
# Disc length: 4682 seconds
#
# Revision: 1
# Processed by: cddbd v1.5.1PL0 Copyright (c) Steve Scherf et al.
# Submitted via: audiograbber 1.83.01
#
DISCID=e3124810
DTITLE=B.B. King - Ultimate Collection
DYEAR=1900
DGENRE=Blues
TTITLE0=Ain't Nobody Here But Us Chick
TTITLE1=Hummingbird
TTITLE2=Lucille
TTITLE3=I Can't Stop Loving You
TTITLE4=How Blue Can You Get
TTITLE5=Caldonia
TTITLE6=Blues Man
TTITLE7=Sweet Sixteen
TTITLE8=Ain't Nobody Home
TTITLE9=When Love Comes Down
TTITLE10=Why I Sing The Blues
TTITLE11=The Thrill Is Gone
TTITLE12=Jack, You're Dead
TTITLE13=Let The Good Times Roll
TTITLE14=Rusty Dusty Blues
TTITLE15=Walking And Crying
EXTD=
EXTT0=
EXTT1=
EXTT2=
EXTT3=
EXTT4=
EXTT5=
EXTT6=
EXTT7=
EXTT8=
EXTT9=
EXTT10=
EXTT11=
EXTT12=
EXTT13=
EXTT14=
EXTT15=
PLAYORDER=
